<!-- Generated by IcoMoon.io -->
<svg version="1.1" xmlns="http://www.w3.org/2000/svg" width="32" height="32" viewBox="0 0 32 32">
<title>Group-2133</title>
<path fill="#f2f5ff" d="M6.605 0h18.789c3.648 0 6.605 2.957 6.605 6.605v18.789c0 3.648-2.957 6.605-6.605 6.605h-18.789c-3.648 0-6.605-2.957-6.605-6.605v-18.789c0-3.648 2.957-6.605 6.605-6.605z"></path>
<path fill="#0d3efe" d="M10.421 8.257c-1.194 0.002-2.162 0.97-2.164 2.164v7.477c0.002 1.194 0.97 2.162 2.164 2.164h6.885v-0.661c-0.107-0.149-0.211-0.319-0.3-0.497l-0.010-0.022h-6.575c-0.543-0-0.984-0.441-0.984-0.984v0-7.476c0-0.543 0.441-0.984 0.984-0.984h11.41c0.543 0 0.984 0.441 0.984 0.984v2.636c0.456 0.237 0.846 0.533 1.178 0.883l0.002 0.002v-3.522c-0.002-1.194-0.97-2.162-2.164-2.164h-0zM11.995 11.405c-0.326 0-0.59 0.264-0.59 0.59s0.264 0.59 0.59 0.59h8.263c0.326 0 0.59-0.264 0.59-0.59s-0.264-0.59-0.59-0.59v0zM20.848 13.766c-0.002 0-0.004 0-0.006 0-1.734 0-3.141 1.406-3.141 3.141 0 0.798 0.298 1.527 0.788 2.081l-0.003-0.003v3.633c0 0.326 0.264 0.59 0.59 0.59 0.122 0 0.235-0.037 0.329-0.1l-0.002 0.001 1.443-0.962 1.443 0.962c0.092 0.062 0.205 0.099 0.327 0.099 0.326 0 0.59-0.264 0.59-0.59v0-3.633c0.488-0.551 0.786-1.279 0.786-2.078 0-1.734-1.406-3.141-3.141-3.141-0.002 0-0.004 0-0.006 0h0zM20.848 14.946c1.087 0 1.967 0.881 1.967 1.967s-0.881 1.967-1.967 1.967c-1.087 0-1.967-0.881-1.967-1.967v0c0-0.003-0-0.006-0-0.009 0-1.082 0.877-1.959 1.959-1.959 0.003 0 0.006 0 0.009 0h-0zM11.995 15.733c-0.326 0-0.59 0.264-0.59 0.59s0.264 0.59 0.59 0.59h3.542c0.326 0 0.59-0.264 0.59-0.59s-0.264-0.59-0.59-0.59v0zM19.668 19.828c0.349 0.147 0.755 0.233 1.18 0.233s0.831-0.086 1.201-0.24l-0.020 0.008v1.688l-0.853-0.569c-0.092-0.062-0.205-0.099-0.327-0.099s-0.235 0.037-0.33 0.101l0.002-0.001-0.853 0.569z"></path>
</svg>
