<!-- Generated by IcoMoon.io -->
<svg version="1.1" xmlns="http://www.w3.org/2000/svg" width="32" height="32" viewBox="0 0 32 32">
<title>Group-2135</title>
<path fill="#f2f5ff" d="M6.605 0h18.789c3.648 0 6.605 2.957 6.605 6.605v18.789c0 3.648-2.957 6.605-6.605 6.605h-18.789c-3.648 0-6.605-2.957-6.605-6.605v-18.789c0-3.648 2.957-6.605 6.605-6.605z"></path>
<path fill="#0d3efe" d="M13.506 7.266c-0.904 0.007-1.647 0.689-1.75 1.566l-0.001 0.008h-1.397c-0.978 0.001-1.77 0.793-1.771 1.77v10.626c0.001 0.977 0.793 1.769 1.77 1.771h4.827c-0.27-0.341-0.504-0.73-0.683-1.147l-0.013-0.033h-4.132c-0.326-0-0.59-0.264-0.59-0.59v-10.626c0-0.326 0.264-0.59 0.59-0.59h1.68c0.322 0.476 0.859 0.785 1.468 0.787h2.755c0.609-0.002 1.146-0.311 1.464-0.781l0.004-0.006h1.68c0.326 0 0.59 0.264 0.59 0.59v4.198c0.442 0.067 0.839 0.181 1.214 0.338l-0.034-0.012v-4.525c-0.001-0.977-0.793-1.769-1.77-1.771h-1.397c-0.104-0.886-0.847-1.567-1.75-1.574h-0.001zM13.506 8.446h2.754c0.326 0 0.59 0.264 0.59 0.59s-0.264 0.59-0.59 0.59v0h-2.754c-0.326 0-0.59-0.264-0.59-0.59s0.264-0.59 0.59-0.59v0zM11.932 12.381c-0.326 0-0.59 0.264-0.59 0.59s0.264 0.59 0.59 0.59h5.903c0.326 0 0.59-0.264 0.59-0.59s-0.264-0.59-0.59-0.59v0zM11.932 14.742c-0.326 0-0.59 0.264-0.59 0.59s0.264 0.59 0.59 0.59v0h2.754c0.326 0 0.59-0.264 0.59-0.59s-0.264-0.59-0.59-0.59v0zM19.211 15.529c-2.391 0-4.329 1.938-4.329 4.329s1.938 4.329 4.329 4.329c2.391 0 4.329-1.938 4.329-4.329 0-0 0-0 0-0v0c-0-2.39-1.938-4.328-4.329-4.328v0zM21.572 17.89c0 0 0 0 0 0 0.217 0 0.393 0.176 0.393 0.393 0 0.109-0.044 0.207-0.115 0.278v0l-3.148 3.148c-0.071 0.071-0.17 0.115-0.278 0.115s-0.207-0.044-0.278-0.115l-1.574-1.574c-0.071-0.071-0.115-0.17-0.115-0.278 0-0.217 0.176-0.393 0.393-0.393 0.109 0 0.207 0.044 0.278 0.115v0l1.296 1.296 2.87-2.87c0.071-0.071 0.169-0.115 0.277-0.115 0 0 0.001 0 0.002 0h-0z"></path>
</svg>
