<!-- Generated by IcoMoon.io -->
<svg version="1.1" xmlns="http://www.w3.org/2000/svg" width="32" height="32" viewBox="0 0 32 32">
<title>Group-2136</title>
<path fill="#f2f5ff" d="M6.605 0h18.789c3.648 0 6.605 2.957 6.605 6.605v18.789c0 3.648-2.957 6.605-6.605 6.605h-18.789c-3.648 0-6.605-2.957-6.605-6.605v-18.789c0-3.648 2.957-6.605 6.605-6.605z"></path>
<path fill="#0d3efe" d="M16.332 7.926c-0.001 0-0.001 0-0.002 0-1.517 0-2.954 0.339-4.241 0.947l0.061-0.026c-0.204 0.096-0.342 0.3-0.342 0.536 0 0.326 0.264 0.59 0.59 0.59 0.090 0 0.175-0.020 0.251-0.056l-0.004 0.002c1.079-0.512 2.345-0.812 3.68-0.812 1.341 0 2.611 0.302 3.746 0.84l-0.053-0.023c0.073 0.035 0.159 0.055 0.249 0.055 0.326 0 0.591-0.264 0.591-0.591 0-0.236-0.138-0.439-0.338-0.534l-0.004-0.002c-1.227-0.585-2.666-0.927-4.185-0.928h-0zM10.423 10.007c-0.139 0.003-0.265 0.054-0.364 0.137l0.001-0.001c-0.626 0.506-1.175 1.065-1.654 1.681l-0.017 0.023c-0.077 0.099-0.123 0.224-0.123 0.361 0 0.326 0.264 0.59 0.59 0.59 0.19 0 0.358-0.089 0.466-0.228l0.001-0.001c0.439-0.564 0.924-1.057 1.46-1.49l0.017-0.013c0.14-0.109 0.229-0.278 0.229-0.467 0-0.326-0.264-0.59-0.59-0.59-0.006 0-0.012 0-0.017 0l0.001-0zM16.698 10.306c-0.319 0.009-0.574 0.27-0.574 0.59 0 0.318 0.252 0.577 0.566 0.59l0.001 0c3.299 0.187 5.927 2.815 6.115 6.096l0.001 0.017c0.018 0.312 0.275 0.557 0.59 0.557 0.326 0 0.59-0.264 0.59-0.59 0-0.012-0-0.023-0.001-0.035l0 0.002c-0.229-3.896-3.332-6.998-7.208-7.224l-0.021-0.001q-0.029-0.004-0.058-0.001zM14.357 10.569c-0.057 0.002-0.11 0.011-0.161 0.027l0.004-0.001c-3.223 0.958-5.534 3.891-5.54 7.365v0.001c0.004 0.585 0.044 1.155 0.116 1.716l-0.007-0.070c0.037 0.294 0.285 0.519 0.586 0.519 0.326 0 0.59-0.264 0.59-0.59 0-0.025-0.002-0.050-0.005-0.074l0 0.003c-0.059-0.447-0.095-0.968-0.099-1.497l-0-0.005c0.004-2.941 1.962-5.423 4.644-6.22l0.046-0.012c0.254-0.070 0.438-0.298 0.438-0.57 0-0.326-0.264-0.59-0.59-0.59-0.008 0-0.016 0-0.024 0l0.001-0zM16.332 12.649c-2.931 0.007-5.304 2.381-5.312 5.31v0.001c0.022 1.485 0.285 2.901 0.75 4.221l-0.029-0.093c0.077 0.242 0.3 0.414 0.563 0.414 0.326 0 0.59-0.264 0.59-0.59 0-0.075-0.014-0.148-0.040-0.214l0.001 0.004c-0.393-1.112-0.631-2.395-0.656-3.73l-0-0.012c0-0 0-0 0-0 0-2.28 1.848-4.128 4.128-4.128 1.376 0 2.595 0.673 3.345 1.708l0.008 0.012c0.109 0.149 0.283 0.245 0.479 0.245 0.326 0 0.591-0.264 0.591-0.591 0-0.13-0.042-0.25-0.113-0.347l0.001 0.002c-0.975-1.344-2.54-2.209-4.307-2.212h-0zM16.332 15.010c-1.628 0.006-2.946 1.324-2.951 2.951v0.001c0 0.403 0.037 3.138 1.648 5.453 0.108 0.154 0.285 0.253 0.485 0.253 0.326 0 0.59-0.264 0.59-0.59 0-0.126-0.040-0.243-0.107-0.339l0.001 0.002c-1.358-1.951-1.437-4.513-1.437-4.779 0-0 0-0.001 0-0.001 0-0.978 0.793-1.771 1.771-1.771s1.77 0.792 1.771 1.77v0.008c0.018 0.498 0.090 0.97 0.212 1.422l-0.010-0.044c0.136 0.659 0.436 1.233 0.857 1.697l-0.003-0.003 0.889 0.884c0.107 0.106 0.254 0.172 0.417 0.172 0.327 0 0.591-0.265 0.591-0.591 0-0.164-0.067-0.312-0.175-0.42l-0-0-0.888-0.882c-0.258-0.321-0.447-0.707-0.541-1.13l-0.003-0.018c-0.086-0.325-0.145-0.703-0.165-1.092l-0.001-0.014v0.009c-0.009-1.625-1.326-2.94-2.951-2.946h-0.001zM21.046 16.968c-0.322 0.005-0.581 0.267-0.581 0.59 0 0.003 0 0.006 0 0.009v-0 0.385c-0 0.008-0 0.017-0 0.026 0 0.815 0.375 1.542 0.961 2.018l0.005 0.004-0.029-0.024 0.441 0.393c0.104 0.092 0.241 0.149 0.392 0.149 0.326 0 0.59-0.264 0.59-0.59 0-0.175-0.076-0.333-0.198-0.441l-0.001-0-0.455-0.407-0.016-0.012c-0.314-0.246-0.514-0.626-0.514-1.052 0-0.023 0.001-0.046 0.002-0.069l-0 0.003v-0.383c0-0.003 0-0.006 0-0.009 0-0.326-0.264-0.59-0.59-0.59-0.003 0-0.006 0-0.008 0h0zM16.323 17.362c-0.322 0.005-0.581 0.267-0.581 0.59 0 0.003 0 0.006 0 0.009v-0s-0.071 2.928 1.747 4.746l0.393 0.393c0.107 0.11 0.257 0.178 0.423 0.178 0.326 0 0.59-0.264 0.59-0.59 0-0.166-0.068-0.315-0.178-0.422l-0.393-0.393c-1.33-1.331-1.401-3.911-1.401-3.911 0-0.003 0-0.006 0-0.009 0-0.326-0.264-0.59-0.59-0.59-0.003 0-0.007 0-0.010 0h0z"></path>
</svg>
