<!-- Generated by IcoMoon.io -->
<svg version="1.1" xmlns="http://www.w3.org/2000/svg" width="32" height="32" viewBox="0 0 32 32">
<title>Group-2137</title>
<path fill="#f2f5ff" d="M6.605 0h18.789c3.648 0 6.605 2.957 6.605 6.605v18.789c0 3.648-2.957 6.605-6.605 6.605h-18.789c-3.648 0-6.605-2.957-6.605-6.605v-18.789c0-3.648 2.957-6.605 6.605-6.605z"></path>
<path fill="#0d3efe" d="M13.552 6.276c-0.322 0.005-0.581 0.267-0.581 0.59 0 0.003 0 0.006 0 0.009v-0 0.317c-1.811 0.259-3.238 1.634-3.574 3.395l-0.004 0.026h-0.357c-0.326 0-0.59 0.264-0.59 0.59s0.264 0.59 0.59 0.59h0.277c0.172 2.211 2.008 3.94 4.248 3.94s4.077-1.729 4.248-3.926l0.001-0.015h0.277c0.326 0 0.59-0.264 0.59-0.59s-0.264-0.59-0.59-0.59v0h-0.357c-0.34-1.788-1.767-3.163-3.556-3.419l-0.023-0.003v-0.317c0-0.002 0-0.005 0-0.008 0-0.326-0.264-0.59-0.59-0.59-0.003 0-0.006 0-0.009 0h0zM12.971 8.37v0.476c0 0.326 0.264 0.59 0.59 0.59s0.59-0.264 0.59-0.59v0-0.476c1.174 0.223 2.098 1.095 2.395 2.221l0.005 0.021h-5.978c0.301-1.147 1.224-2.019 2.379-2.239l0.019-0.003zM10.494 11.793h6.136c-0.174 1.555-1.481 2.754-3.069 2.754s-2.895-1.198-3.067-2.74l-0.001-0.014z"></path>
<path fill="#0d3efe" d="M21.038 16.506c-0 0-0.001 0-0.001 0-0.239 0-0.473 0.021-0.701 0.060l0.024-0.003-0.136 0.563c-0.172 0.697-0.792 1.205-1.53 1.205-0.159 0-0.313-0.024-0.457-0.067l0.011 0.003-0.474-0.141c-0.276 0.354-0.503 0.763-0.661 1.205l-0.009 0.030 0.352 0.338c0.298 0.287 0.482 0.689 0.482 1.134s-0.185 0.847-0.482 1.134l-0 0-0.352 0.338c0.167 0.473 0.395 0.882 0.678 1.246l-0.007-0.010 0.474-0.141c0.134-0.041 0.287-0.065 0.446-0.065 0.738 0 1.358 0.508 1.528 1.194l0.002 0.011 0.136 0.563c0.204 0.036 0.438 0.057 0.677 0.057s0.474-0.021 0.701-0.060l-0.024 0.003 0.136-0.563c0.172-0.697 0.792-1.205 1.53-1.205 0.159 0 0.313 0.024 0.457 0.067l-0.011-0.003 0.474 0.141c0.276-0.354 0.503-0.763 0.661-1.205l0.009-0.030-0.351-0.338c-0.298-0.287-0.483-0.689-0.483-1.134s0.185-0.848 0.482-1.134l0-0 0.352-0.338c-0.167-0.473-0.395-0.882-0.678-1.246l0.007 0.010-0.474 0.141c-0.134 0.041-0.287 0.065-0.446 0.065-0.738 0-1.358-0.508-1.528-1.194l-0.002-0.011-0.136-0.563c-0.203-0.036-0.438-0.057-0.677-0.057-0 0-0.001 0-0.001 0h0zM8.731 17.293c-0.816 0.030-1.466 0.698-1.466 1.518 0 0.017 0 0.033 0.001 0.050l-0-0.002v0.599c0.014 1.353 0.76 2.528 1.861 3.149l0.018 0.009c1.054 0.613 2.32 0.975 3.67 0.975 0.055 0 0.11-0.001 0.165-0.002l-0.008 0c0.024 0 0.052 0 0.080 0 1.195 0 2.327-0.267 3.341-0.744l-0.048 0.020c-0.147-0.331-0.265-0.716-0.335-1.118l-0.004-0.030c-0.428 0.231-0.925 0.414-1.448 0.522l-0.036 0.006-1.014-2.536 0.571-1.237h2.426c0.235-0.446 0.514-0.829 0.838-1.168l-0.002 0.002c-0.043-0.004-0.084-0.014-0.128-0.014zM8.731 18.473h3.529l0.571 1.236-1.042 2.606c-1.768-0.278-3.342-1.198-3.342-2.859v-0.598c-0-0.209 0.13-0.385 0.284-0.385zM21.038 19.654c0.652 0 1.18 0.528 1.18 1.18s-0.528 1.18-1.18 1.18c-0.652 0-1.18-0.528-1.18-1.18v0c0-0.652 0.528-1.18 1.18-1.18v0z"></path>
</svg>
