<!-- Generated by IcoMoon.io -->
<svg version="1.1" xmlns="http://www.w3.org/2000/svg" width="32" height="32" viewBox="0 0 32 32">
<title>Group-2134</title>
<path fill="#f2f5ff" d="M6.605 0h18.789c3.648 0 6.605 2.957 6.605 6.605v18.789c0 3.648-2.957 6.605-6.605 6.605h-18.789c-3.648 0-6.605-2.957-6.605-6.605v-18.789c0-3.648 2.957-6.605 6.605-6.605z"></path>
<path fill="#0d3efe" d="M23.053 12.483c-0.002 0-0.004 0-0.006 0-0.39 0-0.744 0.157-1.002 0.411l0-0c-0.24 0.257-0.403 0.59-0.448 0.958l-0.001 0.008c-0.051 0.341-0.19 1.308-0.327 2.253-0.142-0.052-0.307-0.083-0.478-0.085h-0.001c-0.002 0-0.004 0-0.006 0-0.401 0-0.765 0.162-1.029 0.424l-0.904 0.903c-0.359 0.379-0.784 0.691-1.259 0.917l-0.026 0.011c-0.472 0.192-0.878 0.454-1.224 0.778l0.002-0.002c-0.104 0.106-0.198 0.221-0.283 0.343l-0.006 0.009c-0.090-0.132-0.185-0.247-0.289-0.353l0 0c-0.344-0.322-0.75-0.583-1.196-0.766l-0.026-0.010c-0.369-0.179-0.735-0.378-2.188-1.831-0.264-0.262-0.627-0.424-1.028-0.424-0.002 0-0.004 0-0.006 0h0c-0.172 0.002-0.336 0.033-0.489 0.088l0.010-0.003c-0.137-0.946-0.277-1.912-0.327-2.253-0.046-0.377-0.208-0.709-0.45-0.967l0.001 0.001c-0.258-0.254-0.611-0.411-1.002-0.411-0.003 0-0.006 0-0.009 0h0c-0.703 0.011-1.284 0.519-1.407 1.187l-0.001 0.009c-0.032 0.069-0.052 0.149-0.054 0.234v0.001l-0.001 0.023h0.002c0 0.004-0.002 0.007-0.002 0.011 0 0.028 0.003 0.055 0.007 0.082l-0-0.003c0.174 2.017 0.248 3.308 0.351 4.19 0.105 0.892 0.262 1.482 0.689 1.908 0.826 0.826 1.482 1.349 2.109 1.875 0.772 0.647 0.78 1.101 0.78 1.306 0 0.326 0.264 0.59 0.59 0.59s0.59-0.264 0.59-0.59v0c0-0.445-0.191-1.362-1.202-2.21-0.642-0.539-1.251-1.024-2.033-1.805-0.155-0.155-0.255-0.391-0.351-1.211-0.095-0.807-0.17-2.12-0.344-4.135-0-0.002-0-0.003-0-0.005 0-0.151 0.122-0.273 0.273-0.273 0.002 0 0.004 0 0.005 0h-0c0.106 0 0.127 0.017 0.165 0.057 0.069 0.085 0.113 0.193 0.122 0.31l0 0.002c0.079 0.535 0.525 3.609 0.525 3.609 0.003 0.024 0.007 0.045 0.012 0.065l-0.001-0.004c0.045 0.322 0.191 0.604 0.404 0.82l1.439 1.44c0.107 0.11 0.257 0.178 0.423 0.178 0.326 0 0.59-0.264 0.59-0.59 0-0.166-0.068-0.315-0.178-0.422l-1.44-1.44c-0.037-0.038-0.063-0.086-0.074-0.14l-0-0.002c-0.001-0.026-0.003-0.051-0.007-0.076l0 0.003v-0.007c0.005-0.070 0.036-0.132 0.082-0.178l0-0c0.050-0.053 0.121-0.087 0.2-0.087s0.15 0.033 0.2 0.086l0 0 0.903 0.903c0.452 0.465 0.982 0.853 1.569 1.141l0.033 0.015c0.35 0.133 0.65 0.319 0.909 0.551l-0.003-0.002c0.354 0.354 0.528 0.874 0.528 1.819 0 0.883 0.004 1.582 0.004 1.588v0.006q0 0.006 0 0.012 0 0.023 0 0.046v0.004q0.003 0.028 0.008 0.055t0.015 0.057q0.008 0.026 0.018 0.052 0.006 0.015 0.013 0.028t0.013 0.028l0.005 0.008q0.013 0.022 0.027 0.043v0.003q0.016 0.023 0.033 0.045t0.038 0.042l0.012 0.011q0.016 0.016 0.033 0.031 0.023 0.018 0.048 0.033t0.046 0.028l0.028 0.013 0.029 0.013 0.009 0.004q0.023 0.009 0.047 0.016v0h0.002q0.027 0.008 0.056 0.012t0.052 0.007v0q0.022 0 0.045 0h0.088q0.025-0.004 0.049-0.009t0.057-0.015h0.002q0.027-0.009 0.052-0.021c0.022-0.010 0.039-0.019 0.056-0.028l-0.003 0.002q0.022-0.013 0.044-0.028l0.005-0.004 0.010-0.008q0.018-0.014 0.036-0.028c0.019-0.016 0.036-0.031 0.052-0.048l0-0q0.020-0.021 0.038-0.044v0l0.002-0.003q0.017-0.022 0.031-0.046t0.025-0.045l0.003-0.006q0.012-0.024 0.021-0.049l0.005-0.005q0.009-0.025 0.015-0.050v-0.006q0.007-0.025 0.011-0.052 0.002-0.017 0.004-0.035t0.003-0.030q0-0.017 0-0.033s0-0.007 0-0.007c0-0.006 0.004-0.706 0.004-1.588 0-0.945 0.175-1.464 0.528-1.818 0.256-0.23 0.556-0.416 0.887-0.543l0.020-0.007c0.62-0.303 1.15-0.691 1.601-1.155l0.001-0.001 0.903-0.903c0.050-0.053 0.121-0.087 0.2-0.087s0.15 0.033 0.2 0.086l0 0c0.046 0.046 0.077 0.108 0.082 0.177l0 0.001v0.006c-0.004 0.022-0.006 0.048-0.007 0.074l-0 0.001c-0.012 0.055-0.038 0.103-0.075 0.141l0-0-1.438 1.441c-0.11 0.107-0.178 0.257-0.178 0.423 0 0.326 0.264 0.59 0.59 0.59 0.166 0 0.315-0.068 0.422-0.178l1.439-1.44c0.214-0.217 0.361-0.501 0.404-0.818l0.001-0.008q0.006-0.028 0.010-0.057s0.446-3.074 0.525-3.609c0.009-0.119 0.053-0.226 0.123-0.312l-0.001 0.001c0.039-0.040 0.060-0.058 0.165-0.058 0.002-0 0.004-0 0.006-0 0.151 0 0.273 0.122 0.273 0.273 0 0.002-0 0.004-0 0.006v-0c-0.174 2.015-0.25 3.329-0.345 4.135-0.096 0.82-0.197 1.057-0.351 1.211-0.781 0.782-1.39 1.267-2.033 1.805-1.011 0.848-1.202 1.765-1.202 2.21 0 0.326 0.264 0.59 0.59 0.59s0.59-0.264 0.59-0.59v0c0-0.205 0.008-0.658 0.78-1.306 0.628-0.526 1.283-1.049 2.109-1.875 0.427-0.427 0.584-1.016 0.689-1.908 0.103-0.882 0.177-2.174 0.351-4.19 0.004-0.024 0.006-0.051 0.006-0.079v-0c0-0.004-0.002-0.007-0.002-0.011h0.002v-0.021c-0.002-0.086-0.021-0.167-0.055-0.239l0.002 0.004c-0.127-0.676-0.708-1.182-1.409-1.192h-0.001z"></path>
<path fill="#0d3efe" d="M19.689 8.972c-1.669 0-3.097-1.237-3.109-1.247-0.084-0.076-0.194-0.124-0.316-0.128l-0.001-0c-0 0-0.001 0-0.001 0-0.13 0-0.249 0.047-0.341 0.125l0.001-0.001c-0.014 0.013-1.443 1.25-3.111 1.25-0.272 0.001-0.491 0.221-0.491 0.492 0 0 0 0 0 0v0 2.409c0 1.006 0.363 3.501 3.74 4.921 0.056 0.024 0.122 0.038 0.191 0.038s0.135-0.014 0.194-0.039l-0.003 0.001c3.376-1.422 3.741-3.915 3.741-4.921v-2.407c0-0 0-0.001 0-0.001 0-0.272-0.22-0.492-0.492-0.492 0 0 0 0 0 0v0zM19.194 11.872c0 1.187-0.514 2.824-2.947 3.923-2.432-1.098-2.946-2.736-2.946-3.923v-1.962c1.123-0.14 2.127-0.567 2.961-1.205l-0.015 0.011c0.819 0.627 1.823 1.054 2.917 1.191l0.030 0.003zM15.124 11.867c-0.089-0.090-0.213-0.146-0.349-0.146-0.271 0-0.491 0.22-0.491 0.491 0 0.135 0.054 0.257 0.142 0.346l0.984 0.984c0.089 0.089 0.212 0.143 0.348 0.143s0.259-0.055 0.348-0.143l1.963-1.963c0.091-0.089 0.148-0.213 0.148-0.351 0-0.133-0.053-0.254-0.14-0.343l0 0c-0.087-0.092-0.21-0.149-0.346-0.149-0.005 0-0.010 0-0.015 0l0.001-0h-0.007c-0.132 0.003-0.251 0.059-0.336 0.146l-1.618 1.618z"></path>
</svg>
