<!-- Generated by IcoMoon.io -->
<svg version="1.1" xmlns="http://www.w3.org/2000/svg" width="29" height="32" viewBox="0 0 29 32">
<title>Group-2132</title>
<path fill="#0d3efe" d="M16 0c8.837 0 16 7.163 16 16s-7.163 16-16 16c-8.837 0-16-7.163-16-16v0c0-8.837 7.163-16 16-16v0z"></path>
<path fill="#fecd0d" d="M28.903 16c0 7.126-5.777 12.903-12.903 12.903s-12.903-5.777-12.903-12.903c0-7.126 5.777-12.903 12.903-12.903s12.903 5.777 12.903 12.903z"></path>
<path fill="#0d3efe" d="M18.83 15.52l-4.065-2.401c-0.081-0.050-0.18-0.079-0.285-0.079-0.304 0-0.551 0.247-0.551 0.551 0 0.002 0 0.004 0 0.005v-0 4.805c0 0 0 0 0 0 0 0.306 0.248 0.554 0.554 0.554 0.104 0 0.202-0.029 0.285-0.079l-0.002 0.001 4.065-2.402c0.165-0.098 0.274-0.275 0.274-0.478s-0.109-0.38-0.272-0.477l-0.003-0.001z"></path>
</svg>
