<!-- Generated by IcoMoon.io -->
<svg version="1.1" xmlns="http://www.w3.org/2000/svg" width="33" height="32" viewBox="0 0 33 32">
<title>icons8_chat</title>
<path fill="#fecd0d" d="M5.333 0c-2.941 0.011-5.322 2.392-5.333 5.332v18.080c0.046 1.121 0.966 2.012 2.094 2.012 0.433 0 0.836-0.132 1.17-0.357l-0.007 0.005 3.544-2.579c0.7 2.192 2.714 3.753 5.095 3.762h10.267l7.399 5.381c0.327 0.221 0.73 0.353 1.163 0.353 1.128 0 2.048-0.892 2.094-2.009l0-0.004v-18.079c-0.011-2.941-2.392-5.322-5.332-5.333h-1.232v-1.231c-0.011-2.941-2.392-5.322-5.332-5.333h-0.001zM5.333 2.461h15.589c0.005-0 0.012-0 0.018-0 1.576 0 2.854 1.278 2.854 2.854 0 0.006-0 0.013-0 0.019v-0.001 9.025c0 0.005 0 0.012 0 0.018 0 1.576-1.278 2.854-2.854 2.854-0.006 0-0.013-0-0.019-0h-10.665c-0 0-0 0-0.001 0-0.272 0-0.524 0.088-0.727 0.238l0.003-0.002-7.070 5.143v-17.275c-0-0.005-0-0.012-0-0.018 0-1.576 1.278-2.854 2.854-2.854 0.006 0 0.013 0 0.019 0h-0.001zM26.255 9.025h1.231c0.005-0 0.012-0 0.018-0 1.576 0 2.854 1.278 2.854 2.854 0 0.006-0 0.013-0 0.019v-0.001 17.275l-7.070-5.143c-0.2-0.147-0.452-0.235-0.724-0.235-0 0-0 0-0.001 0h-10.666c-0.005 0-0.012 0-0.018 0-1.576 0-2.854-1.278-2.854-2.854 0-0.006 0-0.013 0-0.019v0.001-0.045l1.631-1.186h10.266c2.941-0.011 5.322-2.392 5.333-5.332v-0.001z"></path>
</svg>
