<!-- Generated by IcoMoon.io -->
<svg version="1.1" xmlns="http://www.w3.org/2000/svg" width="32" height="32" viewBox="0 0 32 32">
<title>Icon-feather-globe</title>
<path fill="none" stroke-linejoin="round" stroke-linecap="round" stroke-miterlimit="4" stroke-width="3.0855" stroke="#000" d="M30.457 16c0 7.985-6.473 14.457-14.457 14.457s-14.457-6.473-14.457-14.457c0-7.985 6.473-14.457 14.457-14.457v0c7.984 0 14.457 6.473 14.457 14.457v0z"></path>
<path fill="none" stroke-linejoin="round" stroke-linecap="round" stroke-miterlimit="4" stroke-width="3.0855" stroke="#000" d="M1.543 16h28.914"></path>
<path fill="none" stroke-linejoin="round" stroke-linecap="round" stroke-miterlimit="4" stroke-width="3.0855" stroke="#000" d="M16 1.543c3.489 3.807 5.667 8.867 5.788 14.433l0 0.024c-0.12 5.59-2.295 10.649-5.797 14.474l0.015-0.017c-3.489-3.807-5.667-8.867-5.788-14.433l-0-0.024c0.12-5.59 2.295-10.649 5.797-14.474l-0.015 0.017z"></path>
</svg>
