<!-- Generated by IcoMoon.io -->
<svg version="1.1" xmlns="http://www.w3.org/2000/svg" width="32" height="32" viewBox="0 0 32 32">
<title>Icon-ionic-md-call</title>
<path d="M30.222 22.222c-0.004 0-0.010 0-0.015 0-2.252 0-4.42-0.357-6.452-1.017l0.148 0.041c-0.164-0.060-0.354-0.094-0.552-0.094-0.484 0-0.92 0.207-1.224 0.537l-0.001 0.001-3.912 3.91c-5.077-2.619-9.111-6.656-11.656-11.586l-0.070-0.149 3.912-3.91c0.317-0.332 0.512-0.783 0.512-1.279 0-0.177-0.025-0.349-0.071-0.511l0.003 0.013c-0.676-1.887-1.066-4.064-1.066-6.332 0-0.024 0-0.048 0-0.072v0.004c-0.003-0.98-0.797-1.774-1.777-1.778h-6.223c-0.98 0.003-1.774 0.797-1.778 1.777v0c0 0.007 0 0.016 0 0.025 0 16.678 13.52 30.198 30.198 30.198 0.009 0 0.017 0 0.026 0h-0.001c0.98-0.003 1.774-0.797 1.778-1.777v-6.223c-0.003-0.98-0.797-1.774-1.777-1.778h-0z"></path>
</svg>
