<!-- Generated by IcoMoon.io -->
<svg version="1.1" xmlns="http://www.w3.org/2000/svg" width="29" height="32" viewBox="0 0 29 32">
<title>icons8_end_call_male</title>
<path fill="#0d3efe" d="M12.19 0c-4.208 0-7.619 3.411-7.619 7.619s3.411 7.619 7.619 7.619c4.208 0 7.619-3.411 7.619-7.619v0c-0.010-4.204-3.415-7.609-7.618-7.619h-0.001zM12.19 2.286c2.946 0 5.333 2.388 5.333 5.333s-2.388 5.333-5.333 5.333c-2.946 0-5.333-2.388-5.333-5.333v0c-0-0.005-0-0.011-0-0.018 0-2.936 2.38-5.316 5.316-5.316 0.006 0 0.012 0 0.018 0h-0.001zM25.365 14.476c-0.272 0.003-0.534 0.041-0.784 0.109l0.022-0.005c-2.509 0.664-4.846 2.749-6.946 6.198s-2.84 6.421-2.19 8.814c0.289 0.973 1.047 1.721 2.005 1.992l0.021 0.005 1.161 0.331c0.172 0.053 0.37 0.083 0.574 0.083 0.786 0 1.468-0.448 1.804-1.102l0.005-0.011 0.896-1.891c0.11-0.227 0.174-0.493 0.174-0.774 0-0.548-0.244-1.039-0.628-1.371l-0.002-0.002-1.483-1.314c-0.168-0.147-0.282-0.351-0.312-0.582l-0-0.005c-0.024-0.21-0.099-0.849 0.937-2.551 0.376-0.661 0.825-1.228 1.348-1.717l0.004-0.004c0.238-0.245 0.57-0.397 0.938-0.397 0.072 0 0.143 0.006 0.213 0.017l-0.008-0.001 1.998 0.579c0.174 0.054 0.374 0.084 0.581 0.084 0.651 0 1.232-0.305 1.606-0.779l1.277-1.681c0.233-0.302 0.373-0.687 0.373-1.104 0-0.543-0.238-1.030-0.615-1.363l-0.002-0.002-0.882-0.79c-0.541-0.477-1.256-0.768-2.038-0.768-0.016 0-0.032 0-0.049 0l0.002-0zM3.429 18.286c-1.893 0.002-3.426 1.536-3.429 3.428v0.582c0 0.001 0 0.002 0 0.003 0 1.862 0.786 3.541 2.045 4.722l0.003 0.003c1.691 1.574 4.824 3.451 10.142 3.451 0.686 0 1.332-0.033 1.945-0.091-0.043-0.101-0.090-0.232-0.13-0.366l-0.007-0.029c-0.152-0.556-0.247-1.198-0.263-1.859l-0-0.010c-0.49 0.041-1 0.069-1.544 0.069-4.576 0-7.195-1.544-8.586-2.84-0.813-0.765-1.319-1.848-1.319-3.049 0-0.002 0-0.004 0-0.006v0-0.582c0-0.631 0.512-1.143 1.143-1.143v0h12.592c0.113-0.196 0.213-0.387 0.334-0.587 0.371-0.61 0.754-1.166 1.143-1.699z"></path>
</svg>
