<!-- Generated by IcoMoon.io -->
<svg version="1.1" xmlns="http://www.w3.org/2000/svg" width="32" height="32" viewBox="0 0 32 32">
<title>Mask-Group-14</title>
<path fill="#0d3efe" d="M22.127 11.999l-1.012-1.040c-0.040-0.043-0.096-0.069-0.159-0.069-0.001 0-0.002 0-0.002 0h0c-0.002-0-0.004-0-0.006-0-0.062 0-0.117 0.027-0.155 0.069l-0 0-7.012 7.063-2.552-2.552c-0.041-0.043-0.098-0.069-0.161-0.069s-0.12 0.027-0.161 0.069l-0 0-1.026 1.023c-0.043 0.042-0.069 0.1-0.069 0.164s0.026 0.122 0.069 0.164l0 0 3.219 3.219c0.169 0.185 0.405 0.306 0.668 0.328l0.004 0c0.263-0.024 0.495-0.14 0.667-0.316l0-0h0.006l7.685-7.725c0.038-0.043 0.061-0.1 0.061-0.162 0-0.064-0.024-0.122-0.064-0.166l0 0z"></path>
<path fill="#0d3efe" d="M16 5.279c5.71 0.002 10.338 4.632 10.338 10.342 0 5.712-4.63 10.342-10.342 10.342s-10.342-4.63-10.342-10.342c0-2.856 1.158-5.441 3.029-7.313v0c1.862-1.871 4.439-3.029 7.286-3.029 0.011 0 0.022 0 0.033 0h-0.002zM16 3.67c-6.603 0-11.955 5.352-11.955 11.955s5.352 11.955 11.955 11.955c6.603 0 11.955-5.352 11.955-11.955v0c0-0.001 0-0.001 0-0.002 0-6.601-5.352-11.953-11.953-11.953-0.001 0-0.001 0-0.002 0h0z"></path>
</svg>
