<svg aria-hidden="true" style="position: absolute; width: 0; height: 0; overflow: hidden;" version="1.1" xmlns="http://www.w3.org/2000/svg" xmlns:xlink="http://www.w3.org/1999/xlink">
<defs>
<symbol id="icon-Group-2132" viewBox="0 0 29 32">
<path fill="#0d3efe" style="fill: var(--color1, #0d3efe)" d="M16 0c8.837 0 16 7.163 16 16s-7.163 16-16 16c-8.837 0-16-7.163-16-16v0c0-8.837 7.163-16 16-16v0z"></path>
<path fill="#fecd0d" style="fill: var(--color2, #fecd0d)" d="M28.903 16c0 7.126-5.777 12.903-12.903 12.903s-12.903-5.777-12.903-12.903c0-7.126 5.777-12.903 12.903-12.903s12.903 5.777 12.903 12.903z"></path>
<path fill="#0d3efe" style="fill: var(--color1, #0d3efe)" d="M18.83 15.52l-4.065-2.401c-0.081-0.050-0.18-0.079-0.285-0.079-0.304 0-0.551 0.247-0.551 0.551 0 0.002 0 0.004 0 0.005v-0 4.805c0 0 0 0 0 0 0 0.306 0.248 0.554 0.554 0.554 0.104 0 0.202-0.029 0.285-0.079l-0.002 0.001 4.065-2.402c0.165-0.098 0.274-0.275 0.274-0.478s-0.109-0.38-0.272-0.477l-0.003-0.001z"></path>
</symbol>
<symbol id="icon-Group-2133" viewBox="0 0 32 32">
<path fill="#f2f5ff" style="fill: var(--color3, #f2f5ff)" d="M6.605 0h18.789c3.648 0 6.605 2.957 6.605 6.605v18.789c0 3.648-2.957 6.605-6.605 6.605h-18.789c-3.648 0-6.605-2.957-6.605-6.605v-18.789c0-3.648 2.957-6.605 6.605-6.605z"></path>
<path fill="#0d3efe" style="fill: var(--color1, #0d3efe)" d="M10.421 8.257c-1.194 0.002-2.162 0.97-2.164 2.164v7.477c0.002 1.194 0.97 2.162 2.164 2.164h6.885v-0.661c-0.107-0.149-0.211-0.319-0.3-0.497l-0.010-0.022h-6.575c-0.543-0-0.984-0.441-0.984-0.984v0-7.476c0-0.543 0.441-0.984 0.984-0.984h11.41c0.543 0 0.984 0.441 0.984 0.984v2.636c0.456 0.237 0.846 0.533 1.178 0.883l0.002 0.002v-3.522c-0.002-1.194-0.97-2.162-2.164-2.164h-0zM11.995 11.405c-0.326 0-0.59 0.264-0.59 0.59s0.264 0.59 0.59 0.59h8.263c0.326 0 0.59-0.264 0.59-0.59s-0.264-0.59-0.59-0.59v0zM20.848 13.766c-0.002 0-0.004 0-0.006 0-1.734 0-3.141 1.406-3.141 3.141 0 0.798 0.298 1.527 0.788 2.081l-0.003-0.003v3.633c0 0.326 0.264 0.59 0.59 0.59 0.122 0 0.235-0.037 0.329-0.1l-0.002 0.001 1.443-0.962 1.443 0.962c0.092 0.062 0.205 0.099 0.327 0.099 0.326 0 0.59-0.264 0.59-0.59v0-3.633c0.488-0.551 0.786-1.279 0.786-2.078 0-1.734-1.406-3.141-3.141-3.141-0.002 0-0.004 0-0.006 0h0zM20.848 14.946c1.087 0 1.967 0.881 1.967 1.967s-0.881 1.967-1.967 1.967c-1.087 0-1.967-0.881-1.967-1.967v0c0-0.003-0-0.006-0-0.009 0-1.082 0.877-1.959 1.959-1.959 0.003 0 0.006 0 0.009 0h-0zM11.995 15.733c-0.326 0-0.59 0.264-0.59 0.59s0.264 0.59 0.59 0.59h3.542c0.326 0 0.59-0.264 0.59-0.59s-0.264-0.59-0.59-0.59v0zM19.668 19.828c0.349 0.147 0.755 0.233 1.18 0.233s0.831-0.086 1.201-0.24l-0.020 0.008v1.688l-0.853-0.569c-0.092-0.062-0.205-0.099-0.327-0.099s-0.235 0.037-0.33 0.101l0.002-0.001-0.853 0.569z"></path>
</symbol>
<symbol id="icon-Group-2134" viewBox="0 0 32 32">
<path fill="#f2f5ff" style="fill: var(--color3, #f2f5ff)" d="M6.605 0h18.789c3.648 0 6.605 2.957 6.605 6.605v18.789c0 3.648-2.957 6.605-6.605 6.605h-18.789c-3.648 0-6.605-2.957-6.605-6.605v-18.789c0-3.648 2.957-6.605 6.605-6.605z"></path>
<path fill="#0d3efe" style="fill: var(--color1, #0d3efe)" d="M23.053 12.483c-0.002 0-0.004 0-0.006 0-0.39 0-0.744 0.157-1.002 0.411l0-0c-0.24 0.257-0.403 0.59-0.448 0.958l-0.001 0.008c-0.051 0.341-0.19 1.308-0.327 2.253-0.142-0.052-0.307-0.083-0.478-0.085h-0.001c-0.002 0-0.004 0-0.006 0-0.401 0-0.765 0.162-1.029 0.424l-0.904 0.903c-0.359 0.379-0.784 0.691-1.259 0.917l-0.026 0.011c-0.472 0.192-0.878 0.454-1.224 0.778l0.002-0.002c-0.104 0.106-0.198 0.221-0.283 0.343l-0.006 0.009c-0.090-0.132-0.185-0.247-0.289-0.353l0 0c-0.344-0.322-0.75-0.583-1.196-0.766l-0.026-0.010c-0.369-0.179-0.735-0.378-2.188-1.831-0.264-0.262-0.627-0.424-1.028-0.424-0.002 0-0.004 0-0.006 0h0c-0.172 0.002-0.336 0.033-0.489 0.088l0.010-0.003c-0.137-0.946-0.277-1.912-0.327-2.253-0.046-0.377-0.208-0.709-0.45-0.967l0.001 0.001c-0.258-0.254-0.611-0.411-1.002-0.411-0.003 0-0.006 0-0.009 0h0c-0.703 0.011-1.284 0.519-1.407 1.187l-0.001 0.009c-0.032 0.069-0.052 0.149-0.054 0.234v0.001l-0.001 0.023h0.002c0 0.004-0.002 0.007-0.002 0.011 0 0.028 0.003 0.055 0.007 0.082l-0-0.003c0.174 2.017 0.248 3.308 0.351 4.19 0.105 0.892 0.262 1.482 0.689 1.908 0.826 0.826 1.482 1.349 2.109 1.875 0.772 0.647 0.78 1.101 0.78 1.306 0 0.326 0.264 0.59 0.59 0.59s0.59-0.264 0.59-0.59v0c0-0.445-0.191-1.362-1.202-2.21-0.642-0.539-1.251-1.024-2.033-1.805-0.155-0.155-0.255-0.391-0.351-1.211-0.095-0.807-0.17-2.12-0.344-4.135-0-0.002-0-0.003-0-0.005 0-0.151 0.122-0.273 0.273-0.273 0.002 0 0.004 0 0.005 0h-0c0.106 0 0.127 0.017 0.165 0.057 0.069 0.085 0.113 0.193 0.122 0.31l0 0.002c0.079 0.535 0.525 3.609 0.525 3.609 0.003 0.024 0.007 0.045 0.012 0.065l-0.001-0.004c0.045 0.322 0.191 0.604 0.404 0.82l1.439 1.44c0.107 0.11 0.257 0.178 0.423 0.178 0.326 0 0.59-0.264 0.59-0.59 0-0.166-0.068-0.315-0.178-0.422l-1.44-1.44c-0.037-0.038-0.063-0.086-0.074-0.14l-0-0.002c-0.001-0.026-0.003-0.051-0.007-0.076l0 0.003v-0.007c0.005-0.070 0.036-0.132 0.082-0.178l0-0c0.050-0.053 0.121-0.087 0.2-0.087s0.15 0.033 0.2 0.086l0 0 0.903 0.903c0.452 0.465 0.982 0.853 1.569 1.141l0.033 0.015c0.35 0.133 0.65 0.319 0.909 0.551l-0.003-0.002c0.354 0.354 0.528 0.874 0.528 1.819 0 0.883 0.004 1.582 0.004 1.588v0.006q0 0.006 0 0.012 0 0.023 0 0.046v0.004q0.003 0.028 0.008 0.055t0.015 0.057q0.008 0.026 0.018 0.052 0.006 0.015 0.013 0.028t0.013 0.028l0.005 0.008q0.013 0.022 0.027 0.043v0.003q0.016 0.023 0.033 0.045t0.038 0.042l0.012 0.011q0.016 0.016 0.033 0.031 0.023 0.018 0.048 0.033t0.046 0.028l0.028 0.013 0.029 0.013 0.009 0.004q0.023 0.009 0.047 0.016v0h0.002q0.027 0.008 0.056 0.012t0.052 0.007v0q0.022 0 0.045 0h0.088q0.025-0.004 0.049-0.009t0.057-0.015h0.002q0.027-0.009 0.052-0.021c0.022-0.010 0.039-0.019 0.056-0.028l-0.003 0.002q0.022-0.013 0.044-0.028l0.005-0.004 0.010-0.008q0.018-0.014 0.036-0.028c0.019-0.016 0.036-0.031 0.052-0.048l0-0q0.020-0.021 0.038-0.044v0l0.002-0.003q0.017-0.022 0.031-0.046t0.025-0.045l0.003-0.006q0.012-0.024 0.021-0.049l0.005-0.005q0.009-0.025 0.015-0.050v-0.006q0.007-0.025 0.011-0.052 0.002-0.017 0.004-0.035t0.003-0.030q0-0.017 0-0.033s0-0.007 0-0.007c0-0.006 0.004-0.706 0.004-1.588 0-0.945 0.175-1.464 0.528-1.818 0.256-0.23 0.556-0.416 0.887-0.543l0.020-0.007c0.62-0.303 1.15-0.691 1.601-1.155l0.001-0.001 0.903-0.903c0.050-0.053 0.121-0.087 0.2-0.087s0.15 0.033 0.2 0.086l0 0c0.046 0.046 0.077 0.108 0.082 0.177l0 0.001v0.006c-0.004 0.022-0.006 0.048-0.007 0.074l-0 0.001c-0.012 0.055-0.038 0.103-0.075 0.141l0-0-1.438 1.441c-0.11 0.107-0.178 0.257-0.178 0.423 0 0.326 0.264 0.59 0.59 0.59 0.166 0 0.315-0.068 0.422-0.178l1.439-1.44c0.214-0.217 0.361-0.501 0.404-0.818l0.001-0.008q0.006-0.028 0.010-0.057s0.446-3.074 0.525-3.609c0.009-0.119 0.053-0.226 0.123-0.312l-0.001 0.001c0.039-0.040 0.060-0.058 0.165-0.058 0.002-0 0.004-0 0.006-0 0.151 0 0.273 0.122 0.273 0.273 0 0.002-0 0.004-0 0.006v-0c-0.174 2.015-0.25 3.329-0.345 4.135-0.096 0.82-0.197 1.057-0.351 1.211-0.781 0.782-1.39 1.267-2.033 1.805-1.011 0.848-1.202 1.765-1.202 2.21 0 0.326 0.264 0.59 0.59 0.59s0.59-0.264 0.59-0.59v0c0-0.205 0.008-0.658 0.78-1.306 0.628-0.526 1.283-1.049 2.109-1.875 0.427-0.427 0.584-1.016 0.689-1.908 0.103-0.882 0.177-2.174 0.351-4.19 0.004-0.024 0.006-0.051 0.006-0.079v-0c0-0.004-0.002-0.007-0.002-0.011h0.002v-0.021c-0.002-0.086-0.021-0.167-0.055-0.239l0.002 0.004c-0.127-0.676-0.708-1.182-1.409-1.192h-0.001z"></path>
<path fill="#0d3efe" style="fill: var(--color1, #0d3efe)" d="M19.689 8.972c-1.669 0-3.097-1.237-3.109-1.247-0.084-0.076-0.194-0.124-0.316-0.128l-0.001-0c-0 0-0.001 0-0.001 0-0.13 0-0.249 0.047-0.341 0.125l0.001-0.001c-0.014 0.013-1.443 1.25-3.111 1.25-0.272 0.001-0.491 0.221-0.491 0.492 0 0 0 0 0 0v0 2.409c0 1.006 0.363 3.501 3.74 4.921 0.056 0.024 0.122 0.038 0.191 0.038s0.135-0.014 0.194-0.039l-0.003 0.001c3.376-1.422 3.741-3.915 3.741-4.921v-2.407c0-0 0-0.001 0-0.001 0-0.272-0.22-0.492-0.492-0.492 0 0 0 0 0 0v0zM19.194 11.872c0 1.187-0.514 2.824-2.947 3.923-2.432-1.098-2.946-2.736-2.946-3.923v-1.962c1.123-0.14 2.127-0.567 2.961-1.205l-0.015 0.011c0.819 0.627 1.823 1.054 2.917 1.191l0.030 0.003zM15.124 11.867c-0.089-0.090-0.213-0.146-0.349-0.146-0.271 0-0.491 0.22-0.491 0.491 0 0.135 0.054 0.257 0.142 0.346l0.984 0.984c0.089 0.089 0.212 0.143 0.348 0.143s0.259-0.055 0.348-0.143l1.963-1.963c0.091-0.089 0.148-0.213 0.148-0.351 0-0.133-0.053-0.254-0.14-0.343l0 0c-0.087-0.092-0.21-0.149-0.346-0.149-0.005 0-0.010 0-0.015 0l0.001-0h-0.007c-0.132 0.003-0.251 0.059-0.336 0.146l-1.618 1.618z"></path>
</symbol>
<symbol id="icon-Group-2135" viewBox="0 0 32 32">
<path fill="#f2f5ff" style="fill: var(--color3, #f2f5ff)" d="M6.605 0h18.789c3.648 0 6.605 2.957 6.605 6.605v18.789c0 3.648-2.957 6.605-6.605 6.605h-18.789c-3.648 0-6.605-2.957-6.605-6.605v-18.789c0-3.648 2.957-6.605 6.605-6.605z"></path>
<path fill="#0d3efe" style="fill: var(--color1, #0d3efe)" d="M13.506 7.266c-0.904 0.007-1.647 0.689-1.75 1.566l-0.001 0.008h-1.397c-0.978 0.001-1.77 0.793-1.771 1.77v10.626c0.001 0.977 0.793 1.769 1.77 1.771h4.827c-0.27-0.341-0.504-0.73-0.683-1.147l-0.013-0.033h-4.132c-0.326-0-0.59-0.264-0.59-0.59v-10.626c0-0.326 0.264-0.59 0.59-0.59h1.68c0.322 0.476 0.859 0.785 1.468 0.787h2.755c0.609-0.002 1.146-0.311 1.464-0.781l0.004-0.006h1.68c0.326 0 0.59 0.264 0.59 0.59v4.198c0.442 0.067 0.839 0.181 1.214 0.338l-0.034-0.012v-4.525c-0.001-0.977-0.793-1.769-1.77-1.771h-1.397c-0.104-0.886-0.847-1.567-1.75-1.574h-0.001zM13.506 8.446h2.754c0.326 0 0.59 0.264 0.59 0.59s-0.264 0.59-0.59 0.59v0h-2.754c-0.326 0-0.59-0.264-0.59-0.59s0.264-0.59 0.59-0.59v0zM11.932 12.381c-0.326 0-0.59 0.264-0.59 0.59s0.264 0.59 0.59 0.59h5.903c0.326 0 0.59-0.264 0.59-0.59s-0.264-0.59-0.59-0.59v0zM11.932 14.742c-0.326 0-0.59 0.264-0.59 0.59s0.264 0.59 0.59 0.59v0h2.754c0.326 0 0.59-0.264 0.59-0.59s-0.264-0.59-0.59-0.59v0zM19.211 15.529c-2.391 0-4.329 1.938-4.329 4.329s1.938 4.329 4.329 4.329c2.391 0 4.329-1.938 4.329-4.329 0-0 0-0 0-0v0c-0-2.39-1.938-4.328-4.329-4.328v0zM21.572 17.89c0 0 0 0 0 0 0.217 0 0.393 0.176 0.393 0.393 0 0.109-0.044 0.207-0.115 0.278v0l-3.148 3.148c-0.071 0.071-0.17 0.115-0.278 0.115s-0.207-0.044-0.278-0.115l-1.574-1.574c-0.071-0.071-0.115-0.17-0.115-0.278 0-0.217 0.176-0.393 0.393-0.393 0.109 0 0.207 0.044 0.278 0.115v0l1.296 1.296 2.87-2.87c0.071-0.071 0.169-0.115 0.277-0.115 0 0 0.001 0 0.002 0h-0z"></path>
</symbol>
<symbol id="icon-Group-2136" viewBox="0 0 32 32">
<path fill="#f2f5ff" style="fill: var(--color3, #f2f5ff)" d="M6.605 0h18.789c3.648 0 6.605 2.957 6.605 6.605v18.789c0 3.648-2.957 6.605-6.605 6.605h-18.789c-3.648 0-6.605-2.957-6.605-6.605v-18.789c0-3.648 2.957-6.605 6.605-6.605z"></path>
<path fill="#0d3efe" style="fill: var(--color1, #0d3efe)" d="M16.332 7.926c-0.001 0-0.001 0-0.002 0-1.517 0-2.954 0.339-4.241 0.947l0.061-0.026c-0.204 0.096-0.342 0.3-0.342 0.536 0 0.326 0.264 0.59 0.59 0.59 0.090 0 0.175-0.020 0.251-0.056l-0.004 0.002c1.079-0.512 2.345-0.812 3.68-0.812 1.341 0 2.611 0.302 3.746 0.84l-0.053-0.023c0.073 0.035 0.159 0.055 0.249 0.055 0.326 0 0.591-0.264 0.591-0.591 0-0.236-0.138-0.439-0.338-0.534l-0.004-0.002c-1.227-0.585-2.666-0.927-4.185-0.928h-0zM10.423 10.007c-0.139 0.003-0.265 0.054-0.364 0.137l0.001-0.001c-0.626 0.506-1.175 1.065-1.654 1.681l-0.017 0.023c-0.077 0.099-0.123 0.224-0.123 0.361 0 0.326 0.264 0.59 0.59 0.59 0.19 0 0.358-0.089 0.466-0.228l0.001-0.001c0.439-0.564 0.924-1.057 1.46-1.49l0.017-0.013c0.14-0.109 0.229-0.278 0.229-0.467 0-0.326-0.264-0.59-0.59-0.59-0.006 0-0.012 0-0.017 0l0.001-0zM16.698 10.306c-0.319 0.009-0.574 0.27-0.574 0.59 0 0.318 0.252 0.577 0.566 0.59l0.001 0c3.299 0.187 5.927 2.815 6.115 6.096l0.001 0.017c0.018 0.312 0.275 0.557 0.59 0.557 0.326 0 0.59-0.264 0.59-0.59 0-0.012-0-0.023-0.001-0.035l0 0.002c-0.229-3.896-3.332-6.998-7.208-7.224l-0.021-0.001q-0.029-0.004-0.058-0.001zM14.357 10.569c-0.057 0.002-0.11 0.011-0.161 0.027l0.004-0.001c-3.223 0.958-5.534 3.891-5.54 7.365v0.001c0.004 0.585 0.044 1.155 0.116 1.716l-0.007-0.070c0.037 0.294 0.285 0.519 0.586 0.519 0.326 0 0.59-0.264 0.59-0.59 0-0.025-0.002-0.050-0.005-0.074l0 0.003c-0.059-0.447-0.095-0.968-0.099-1.497l-0-0.005c0.004-2.941 1.962-5.423 4.644-6.22l0.046-0.012c0.254-0.070 0.438-0.298 0.438-0.57 0-0.326-0.264-0.59-0.59-0.59-0.008 0-0.016 0-0.024 0l0.001-0zM16.332 12.649c-2.931 0.007-5.304 2.381-5.312 5.31v0.001c0.022 1.485 0.285 2.901 0.75 4.221l-0.029-0.093c0.077 0.242 0.3 0.414 0.563 0.414 0.326 0 0.59-0.264 0.59-0.59 0-0.075-0.014-0.148-0.040-0.214l0.001 0.004c-0.393-1.112-0.631-2.395-0.656-3.73l-0-0.012c0-0 0-0 0-0 0-2.28 1.848-4.128 4.128-4.128 1.376 0 2.595 0.673 3.345 1.708l0.008 0.012c0.109 0.149 0.283 0.245 0.479 0.245 0.326 0 0.591-0.264 0.591-0.591 0-0.13-0.042-0.25-0.113-0.347l0.001 0.002c-0.975-1.344-2.54-2.209-4.307-2.212h-0zM16.332 15.010c-1.628 0.006-2.946 1.324-2.951 2.951v0.001c0 0.403 0.037 3.138 1.648 5.453 0.108 0.154 0.285 0.253 0.485 0.253 0.326 0 0.59-0.264 0.59-0.59 0-0.126-0.040-0.243-0.107-0.339l0.001 0.002c-1.358-1.951-1.437-4.513-1.437-4.779 0-0 0-0.001 0-0.001 0-0.978 0.793-1.771 1.771-1.771s1.77 0.792 1.771 1.77v0.008c0.018 0.498 0.090 0.97 0.212 1.422l-0.010-0.044c0.136 0.659 0.436 1.233 0.857 1.697l-0.003-0.003 0.889 0.884c0.107 0.106 0.254 0.172 0.417 0.172 0.327 0 0.591-0.265 0.591-0.591 0-0.164-0.067-0.312-0.175-0.42l-0-0-0.888-0.882c-0.258-0.321-0.447-0.707-0.541-1.13l-0.003-0.018c-0.086-0.325-0.145-0.703-0.165-1.092l-0.001-0.014v0.009c-0.009-1.625-1.326-2.94-2.951-2.946h-0.001zM21.046 16.968c-0.322 0.005-0.581 0.267-0.581 0.59 0 0.003 0 0.006 0 0.009v-0 0.385c-0 0.008-0 0.017-0 0.026 0 0.815 0.375 1.542 0.961 2.018l0.005 0.004-0.029-0.024 0.441 0.393c0.104 0.092 0.241 0.149 0.392 0.149 0.326 0 0.59-0.264 0.59-0.59 0-0.175-0.076-0.333-0.198-0.441l-0.001-0-0.455-0.407-0.016-0.012c-0.314-0.246-0.514-0.626-0.514-1.052 0-0.023 0.001-0.046 0.002-0.069l-0 0.003v-0.383c0-0.003 0-0.006 0-0.009 0-0.326-0.264-0.59-0.59-0.59-0.003 0-0.006 0-0.008 0h0zM16.323 17.362c-0.322 0.005-0.581 0.267-0.581 0.59 0 0.003 0 0.006 0 0.009v-0s-0.071 2.928 1.747 4.746l0.393 0.393c0.107 0.11 0.257 0.178 0.423 0.178 0.326 0 0.59-0.264 0.59-0.59 0-0.166-0.068-0.315-0.178-0.422l-0.393-0.393c-1.33-1.331-1.401-3.911-1.401-3.911 0-0.003 0-0.006 0-0.009 0-0.326-0.264-0.59-0.59-0.59-0.003 0-0.007 0-0.010 0h0z"></path>
</symbol>
<symbol id="icon-Group-2137" viewBox="0 0 32 32">
<path fill="#f2f5ff" style="fill: var(--color3, #f2f5ff)" d="M6.605 0h18.789c3.648 0 6.605 2.957 6.605 6.605v18.789c0 3.648-2.957 6.605-6.605 6.605h-18.789c-3.648 0-6.605-2.957-6.605-6.605v-18.789c0-3.648 2.957-6.605 6.605-6.605z"></path>
<path fill="#0d3efe" style="fill: var(--color1, #0d3efe)" d="M13.552 6.276c-0.322 0.005-0.581 0.267-0.581 0.59 0 0.003 0 0.006 0 0.009v-0 0.317c-1.811 0.259-3.238 1.634-3.574 3.395l-0.004 0.026h-0.357c-0.326 0-0.59 0.264-0.59 0.59s0.264 0.59 0.59 0.59h0.277c0.172 2.211 2.008 3.94 4.248 3.94s4.077-1.729 4.248-3.926l0.001-0.015h0.277c0.326 0 0.59-0.264 0.59-0.59s-0.264-0.59-0.59-0.59v0h-0.357c-0.34-1.788-1.767-3.163-3.556-3.419l-0.023-0.003v-0.317c0-0.002 0-0.005 0-0.008 0-0.326-0.264-0.59-0.59-0.59-0.003 0-0.006 0-0.009 0h0zM12.971 8.37v0.476c0 0.326 0.264 0.59 0.59 0.59s0.59-0.264 0.59-0.59v0-0.476c1.174 0.223 2.098 1.095 2.395 2.221l0.005 0.021h-5.978c0.301-1.147 1.224-2.019 2.379-2.239l0.019-0.003zM10.494 11.793h6.136c-0.174 1.555-1.481 2.754-3.069 2.754s-2.895-1.198-3.067-2.74l-0.001-0.014z"></path>
<path fill="#0d3efe" style="fill: var(--color1, #0d3efe)" d="M21.038 16.506c-0 0-0.001 0-0.001 0-0.239 0-0.473 0.021-0.701 0.060l0.024-0.003-0.136 0.563c-0.172 0.697-0.792 1.205-1.53 1.205-0.159 0-0.313-0.024-0.457-0.067l0.011 0.003-0.474-0.141c-0.276 0.354-0.503 0.763-0.661 1.205l-0.009 0.030 0.352 0.338c0.298 0.287 0.482 0.689 0.482 1.134s-0.185 0.847-0.482 1.134l-0 0-0.352 0.338c0.167 0.473 0.395 0.882 0.678 1.246l-0.007-0.010 0.474-0.141c0.134-0.041 0.287-0.065 0.446-0.065 0.738 0 1.358 0.508 1.528 1.194l0.002 0.011 0.136 0.563c0.204 0.036 0.438 0.057 0.677 0.057s0.474-0.021 0.701-0.060l-0.024 0.003 0.136-0.563c0.172-0.697 0.792-1.205 1.53-1.205 0.159 0 0.313 0.024 0.457 0.067l-0.011-0.003 0.474 0.141c0.276-0.354 0.503-0.763 0.661-1.205l0.009-0.030-0.351-0.338c-0.298-0.287-0.483-0.689-0.483-1.134s0.185-0.848 0.482-1.134l0-0 0.352-0.338c-0.167-0.473-0.395-0.882-0.678-1.246l0.007 0.010-0.474 0.141c-0.134 0.041-0.287 0.065-0.446 0.065-0.738 0-1.358-0.508-1.528-1.194l-0.002-0.011-0.136-0.563c-0.203-0.036-0.438-0.057-0.677-0.057-0 0-0.001 0-0.001 0h0zM8.731 17.293c-0.816 0.030-1.466 0.698-1.466 1.518 0 0.017 0 0.033 0.001 0.050l-0-0.002v0.599c0.014 1.353 0.76 2.528 1.861 3.149l0.018 0.009c1.054 0.613 2.32 0.975 3.67 0.975 0.055 0 0.11-0.001 0.165-0.002l-0.008 0c0.024 0 0.052 0 0.080 0 1.195 0 2.327-0.267 3.341-0.744l-0.048 0.020c-0.147-0.331-0.265-0.716-0.335-1.118l-0.004-0.030c-0.428 0.231-0.925 0.414-1.448 0.522l-0.036 0.006-1.014-2.536 0.571-1.237h2.426c0.235-0.446 0.514-0.829 0.838-1.168l-0.002 0.002c-0.043-0.004-0.084-0.014-0.128-0.014zM8.731 18.473h3.529l0.571 1.236-1.042 2.606c-1.768-0.278-3.342-1.198-3.342-2.859v-0.598c-0-0.209 0.13-0.385 0.284-0.385zM21.038 19.654c0.652 0 1.18 0.528 1.18 1.18s-0.528 1.18-1.18 1.18c-0.652 0-1.18-0.528-1.18-1.18v0c0-0.652 0.528-1.18 1.18-1.18v0z"></path>
</symbol>
<symbol id="icon-Icon-awesome-caret-down" viewBox="0 0 56 32">
<path d="M3.795 0h48.821c0.002 0 0.005 0 0.008 0 2.091 0 3.786 1.695 3.786 3.786 0 1.048-0.426 1.997-1.115 2.683l-0 0-24.402 24.42c-0.687 0.682-1.634 1.103-2.679 1.103s-1.991-0.421-2.679-1.103l-24.402-24.419c-0.689-0.686-1.115-1.635-1.115-2.683 0-2.087 1.689-3.78 3.775-3.786h0.001z"></path>
</symbol>
<symbol id="icon-Icon-feather-globe" viewBox="0 0 32 32">
<path stroke-linejoin="round" stroke-linecap="round" stroke-miterlimit="4" stroke-width="3.0855" d="M30.457 16c0 7.985-6.473 14.457-14.457 14.457s-14.457-6.473-14.457-14.457c0-7.985 6.473-14.457 14.457-14.457v0c7.984 0 14.457 6.473 14.457 14.457v0z"></path>
<path stroke-linejoin="round" stroke-linecap="round" stroke-miterlimit="4" stroke-width="3.0855" d="M1.543 16h28.914"></path>
<path stroke-linejoin="round" stroke-linecap="round" stroke-miterlimit="4" stroke-width="3.0855" d="M16 1.543c3.489 3.807 5.667 8.867 5.788 14.433l0 0.024c-0.12 5.59-2.295 10.649-5.797 14.474l0.015-0.017c-3.489-3.807-5.667-8.867-5.788-14.433l-0-0.024c0.12-5.59 2.295-10.649 5.797-14.474l-0.015 0.017z"></path>
</symbol>
<symbol id="icon-Icon-ionic-md-call" viewBox="0 0 32 32">
<path d="M30.222 22.222c-0.004 0-0.010 0-0.015 0-2.252 0-4.42-0.357-6.452-1.017l0.148 0.041c-0.164-0.060-0.354-0.094-0.552-0.094-0.484 0-0.92 0.207-1.224 0.537l-0.001 0.001-3.912 3.91c-5.077-2.619-9.111-6.656-11.656-11.586l-0.070-0.149 3.912-3.91c0.317-0.332 0.512-0.783 0.512-1.279 0-0.177-0.025-0.349-0.071-0.511l0.003 0.013c-0.676-1.887-1.066-4.064-1.066-6.332 0-0.024 0-0.048 0-0.072v0.004c-0.003-0.98-0.797-1.774-1.777-1.778h-6.223c-0.98 0.003-1.774 0.797-1.778 1.777v0c0 0.007 0 0.016 0 0.025 0 16.678 13.52 30.198 30.198 30.198 0.009 0 0.017 0 0.026 0h-0.001c0.98-0.003 1.774-0.797 1.778-1.777v-6.223c-0.003-0.98-0.797-1.774-1.777-1.778h-0z"></path>
</symbol>
<symbol id="icon-Icon-material-email" viewBox="0 0 40 32">
<path d="M35.999 0h-32c-2.2 0.009-3.98 1.794-3.98 3.995 0 0.002 0 0.003 0 0.005v-0l-0.019 24.001c0.007 2.206 1.794 3.992 3.999 3.999h32.001c2.206-0.007 3.992-1.794 3.999-3.999v-24.002c-0.007-2.206-1.794-3.992-3.999-3.999h-0.001zM35.999 7.999l-16.006 10.001-16.006-10.001v-3.999l16.006 10.001 16.006-10.001z"></path>
</symbol>
<symbol id="icon-icons8_chat" viewBox="0 0 33 32">
<path fill="#fecd0d" style="fill: var(--color2, #fecd0d)" d="M5.333 0c-2.941 0.011-5.322 2.392-5.333 5.332v18.080c0.046 1.121 0.966 2.012 2.094 2.012 0.433 0 0.836-0.132 1.17-0.357l-0.007 0.005 3.544-2.579c0.7 2.192 2.714 3.753 5.095 3.762h10.267l7.399 5.381c0.327 0.221 0.73 0.353 1.163 0.353 1.128 0 2.048-0.892 2.094-2.009l0-0.004v-18.079c-0.011-2.941-2.392-5.322-5.332-5.333h-1.232v-1.231c-0.011-2.941-2.392-5.322-5.332-5.333h-0.001zM5.333 2.461h15.589c0.005-0 0.012-0 0.018-0 1.576 0 2.854 1.278 2.854 2.854 0 0.006-0 0.013-0 0.019v-0.001 9.025c0 0.005 0 0.012 0 0.018 0 1.576-1.278 2.854-2.854 2.854-0.006 0-0.013-0-0.019-0h-10.665c-0 0-0 0-0.001 0-0.272 0-0.524 0.088-0.727 0.238l0.003-0.002-7.070 5.143v-17.275c-0-0.005-0-0.012-0-0.018 0-1.576 1.278-2.854 2.854-2.854 0.006 0 0.013 0 0.019 0h-0.001zM26.255 9.025h1.231c0.005-0 0.012-0 0.018-0 1.576 0 2.854 1.278 2.854 2.854 0 0.006-0 0.013-0 0.019v-0.001 17.275l-7.070-5.143c-0.2-0.147-0.452-0.235-0.724-0.235-0 0-0 0-0.001 0h-10.666c-0.005 0-0.012 0-0.018 0-1.576 0-2.854-1.278-2.854-2.854 0-0.006 0-0.013 0-0.019v0.001-0.045l1.631-1.186h10.266c2.941-0.011 5.322-2.392 5.333-5.332v-0.001z"></path>
</symbol>
<symbol id="icon-icons8_end_call_male" viewBox="0 0 29 32">
<path fill="#0d3efe" style="fill: var(--color1, #0d3efe)" d="M12.19 0c-4.208 0-7.619 3.411-7.619 7.619s3.411 7.619 7.619 7.619c4.208 0 7.619-3.411 7.619-7.619v0c-0.010-4.204-3.415-7.609-7.618-7.619h-0.001zM12.19 2.286c2.946 0 5.333 2.388 5.333 5.333s-2.388 5.333-5.333 5.333c-2.946 0-5.333-2.388-5.333-5.333v0c-0-0.005-0-0.011-0-0.018 0-2.936 2.38-5.316 5.316-5.316 0.006 0 0.012 0 0.018 0h-0.001zM25.365 14.476c-0.272 0.003-0.534 0.041-0.784 0.109l0.022-0.005c-2.509 0.664-4.846 2.749-6.946 6.198s-2.84 6.421-2.19 8.814c0.289 0.973 1.047 1.721 2.005 1.992l0.021 0.005 1.161 0.331c0.172 0.053 0.37 0.083 0.574 0.083 0.786 0 1.468-0.448 1.804-1.102l0.005-0.011 0.896-1.891c0.11-0.227 0.174-0.493 0.174-0.774 0-0.548-0.244-1.039-0.628-1.371l-0.002-0.002-1.483-1.314c-0.168-0.147-0.282-0.351-0.312-0.582l-0-0.005c-0.024-0.21-0.099-0.849 0.937-2.551 0.376-0.661 0.825-1.228 1.348-1.717l0.004-0.004c0.238-0.245 0.57-0.397 0.938-0.397 0.072 0 0.143 0.006 0.213 0.017l-0.008-0.001 1.998 0.579c0.174 0.054 0.374 0.084 0.581 0.084 0.651 0 1.232-0.305 1.606-0.779l1.277-1.681c0.233-0.302 0.373-0.687 0.373-1.104 0-0.543-0.238-1.030-0.615-1.363l-0.002-0.002-0.882-0.79c-0.541-0.477-1.256-0.768-2.038-0.768-0.016 0-0.032 0-0.049 0l0.002-0zM3.429 18.286c-1.893 0.002-3.426 1.536-3.429 3.428v0.582c0 0.001 0 0.002 0 0.003 0 1.862 0.786 3.541 2.045 4.722l0.003 0.003c1.691 1.574 4.824 3.451 10.142 3.451 0.686 0 1.332-0.033 1.945-0.091-0.043-0.101-0.090-0.232-0.13-0.366l-0.007-0.029c-0.152-0.556-0.247-1.198-0.263-1.859l-0-0.010c-0.49 0.041-1 0.069-1.544 0.069-4.576 0-7.195-1.544-8.586-2.84-0.813-0.765-1.319-1.848-1.319-3.049 0-0.002 0-0.004 0-0.006v0-0.582c0-0.631 0.512-1.143 1.143-1.143v0h12.592c0.113-0.196 0.213-0.387 0.334-0.587 0.371-0.61 0.754-1.166 1.143-1.699z"></path>
</symbol>
<symbol id="icon-Mask-Group-14" viewBox="0 0 32 32">
<path fill="#0d3efe" style="fill: var(--color1, #0d3efe)" d="M22.127 11.999l-1.012-1.040c-0.040-0.043-0.096-0.069-0.159-0.069-0.001 0-0.002 0-0.002 0h0c-0.002-0-0.004-0-0.006-0-0.062 0-0.117 0.027-0.155 0.069l-0 0-7.012 7.063-2.552-2.552c-0.041-0.043-0.098-0.069-0.161-0.069s-0.12 0.027-0.161 0.069l-0 0-1.026 1.023c-0.043 0.042-0.069 0.1-0.069 0.164s0.026 0.122 0.069 0.164l0 0 3.219 3.219c0.169 0.185 0.405 0.306 0.668 0.328l0.004 0c0.263-0.024 0.495-0.14 0.667-0.316l0-0h0.006l7.685-7.725c0.038-0.043 0.061-0.1 0.061-0.162 0-0.064-0.024-0.122-0.064-0.166l0 0z"></path>
<path fill="#0d3efe" style="fill: var(--color1, #0d3efe)" d="M16 5.279c5.71 0.002 10.338 4.632 10.338 10.342 0 5.712-4.63 10.342-10.342 10.342s-10.342-4.63-10.342-10.342c0-2.856 1.158-5.441 3.029-7.313v0c1.862-1.871 4.439-3.029 7.286-3.029 0.011 0 0.022 0 0.033 0h-0.002zM16 3.67c-6.603 0-11.955 5.352-11.955 11.955s5.352 11.955 11.955 11.955c6.603 0 11.955-5.352 11.955-11.955v0c0-0.001 0-0.001 0-0.002 0-6.601-5.352-11.953-11.953-11.953-0.001 0-0.001 0-0.002 0h0z"></path>
</symbol>
</defs>
</svg>
